<svg width="24" height="24" viewBox="0 0 24 24" fill="none" xmlns="http://www.w3.org/2000/svg">
<g clip-path="url(#clip0_11_749)">
<path d="M17.3056 4.16795C17.5066 3.96693 17.6195 3.69429 17.6195 3.41001C17.6195 3.12572 17.5066 2.85308 17.3056 2.65207L15.2844 0.63089C14.9494 0.295859 14.495 0.107641 14.0212 0.107642C13.5474 0.107641 13.093 0.295859 12.7579 0.63089L0.63088 12.7579C0.295849 13.093 0.107631 13.5474 0.107631 14.0212C0.107631 14.495 0.295849 14.9494 0.63088 15.2844L2.65206 17.3056C2.85307 17.5066 3.12571 17.6195 3.41 17.6195C3.69428 17.6195 3.96692 17.5066 4.16794 17.3056C4.50297 16.9706 4.95737 16.7823 5.43117 16.7823C5.90498 16.7823 6.35938 16.9706 6.69441 17.3056C7.02944 17.6406 7.21766 18.095 7.21766 18.5688C7.21766 19.0426 7.02944 19.497 6.69441 19.8321C6.49339 20.0331 6.38046 20.3057 6.38046 20.59C6.38046 20.8743 6.49339 21.1469 6.69441 21.3479L8.71558 23.3691C9.05061 23.7041 9.50501 23.8924 9.97882 23.8924C10.4526 23.8924 10.907 23.7041 11.2421 23.3691L23.3691 11.2421C23.7041 10.907 23.8924 10.4526 23.8924 9.97883C23.8924 9.50502 23.7041 9.05062 23.3691 8.71559L21.3479 6.69442C21.1469 6.4934 20.8743 6.38047 20.59 6.38047C20.3057 6.38047 20.0331 6.4934 19.832 6.69442C19.497 7.02945 19.0426 7.21767 18.5688 7.21767C18.095 7.21767 17.6406 7.02945 17.3056 6.69442C16.9705 6.35939 16.7823 5.90499 16.7823 5.43118C16.7823 4.95738 16.9705 4.50298 17.3056 4.16795ZM8.86338 20.4852C9.2811 19.7381 9.44353 18.8751 9.32597 18.0272C9.20841 17.1794 8.8173 16.3932 8.21207 15.7879C7.60684 15.1827 6.82057 14.7916 5.97275 14.674C5.12494 14.5565 4.26192 14.7189 3.51485 15.1366L2.39941 14.0212L5.68382 10.7368L13.2632 18.3162L9.97882 21.6006L8.86338 20.4852ZM20.4851 8.86339L21.6006 9.97883L14.7791 16.8003L7.1997 9.22089L14.0212 2.39942L15.1366 3.51486C14.7189 4.26193 14.5565 5.12495 14.674 5.97276C14.7916 6.82058 15.1827 7.60685 15.7879 8.21208C16.3932 8.81731 17.1794 9.20842 18.0272 9.32598C18.875 9.44354 19.7381 9.28111 20.4851 8.86339Z" fill="#0B1215"/>
</g>
<defs>
<clipPath id="clip0_11_749">
<rect width="24" height="24" fill="white"/>
</clipPath>
</defs>
</svg>
