<svg width="48" height="48" viewBox="0 0 48 48" fill="none" xmlns="http://www.w3.org/2000/svg">
<path d="M8.05973 21.9562C8.52555 21.9562 8.90348 21.5783 8.90348 21.1124V10.3495C8.90348 9.70973 9.4242 9.18893 10.0637 9.18893H37.936C38.5761 9.18893 39.0969 9.70966 39.0969 10.3495V21.1124C39.0969 21.5783 39.4748 21.9562 39.9407 21.9562C40.4065 21.9562 40.7844 21.5783 40.7844 21.1124V10.3495C40.7844 8.77913 39.5063 7.50143 37.936 7.50143H10.0636C8.49323 7.50143 7.2159 8.77913 7.2159 10.3495V21.1124C7.2159 21.5783 7.5939 21.9562 8.05973 21.9562Z" fill="#0B1215"/>
<path d="M43.024 25.1455C42.8492 24.8517 41.6134 23.1012 36.6073 21.8723V19.5326C36.6073 17.9622 35.3299 16.6845 33.7596 16.6845H27.6439C26.0735 16.6845 24.7955 17.9622 24.7955 19.5326V20.6528C24.5192 20.6503 24.248 20.6462 23.9634 20.6462C23.7284 20.6462 23.5058 20.6499 23.2764 20.6516V19.5325C23.2764 17.9621 21.9983 16.6844 20.428 16.6844H14.313C12.7427 16.6844 11.4646 17.9621 11.4646 19.5325V21.8431C6.36795 23.0759 5.14178 24.8579 4.97018 25.1549C4.89623 25.2831 4.85738 25.4288 4.85738 25.5768V39.6547C4.85738 40.1205 5.2353 40.4984 5.70113 40.4984C6.16695 40.4984 6.54488 40.1205 6.54488 39.6547V25.8756C7.2099 25.1894 10.7739 22.3336 23.9633 22.3336C37.2121 22.3336 40.8061 25.2157 41.455 25.8749V33.1595H8.7555C8.28968 33.1595 7.91175 33.5375 7.91175 34.0033C7.91175 34.4691 8.28968 34.847 8.7555 34.847H41.4552V39.6547C41.4552 40.1205 41.8331 40.4984 42.299 40.4984C42.7648 40.4984 43.1427 40.1205 43.1427 39.6547V25.5768C43.1427 25.4252 43.1017 25.2758 43.024 25.1455ZM13.1522 19.5326C13.1522 18.8929 13.673 18.3721 14.3132 18.3721H20.4281C21.0683 18.3721 21.5891 18.8928 21.5891 19.5326V20.6805C18.1103 20.7761 15.3444 21.0778 13.1523 21.4847L13.1522 19.5326ZM26.483 19.5326C26.483 18.8929 27.0038 18.3721 27.644 18.3721H33.7597C34.3991 18.3721 34.9198 18.8928 34.9198 19.5326V21.5087C32.7302 21.0954 29.9667 20.7858 26.4831 20.684L26.483 19.5326Z" fill="#0B1215"/>
</svg>
